<svg width="156" height="125" xmlns="http://www.w3.org/2000/svg" xmlns:xlink="http://www.w3.org/1999/xlink" xml:space="preserve" overflow="hidden"><g transform="translate(-6 0)"><g><g><g><path d="M222.56 182.226 220.886 179.37 222.817 174.97C223.879 172.551 224.761 170.19 224.776 169.724 224.814 168.573 226.838 172.581 228.26 176.624L229.421 179.924 227.633 182.502C226.651 183.921 225.483 185.081 225.04 185.081 224.596 185.081 223.48 183.796 222.56 182.226ZM190.116 177.12C188.718 176.616 187.503 176.2 187.415 176.195 187.328 176.19 187.256 175.746 187.256 175.21 187.256 174.674 186.288 173.664 185.105 172.966 183.921 172.268 182.206 170.618 181.292 169.3 179.456 166.651 179.068 164.395 180.544 164.961 187.778 167.737 195.161 166.744 203.054 161.934 209.72 157.872 214.771 151.876 217.409 144.894 218.874 141.016 218.923 140.965 219.398 142.824 220.167 145.834 218.12 154.242 215.161 160.228 210.678 169.296 200.472 178.148 194.598 178.063 193.531 178.049 191.514 177.623 190.116 177.12ZM209.656 177.436C207.691 176.646 207.865 176.17 210.952 173.895 214.543 171.248 219.328 164.138 221.412 158.351 222.913 154.182 223.116 152.674 223.136 145.525L223.16 137.425 225.067 137.424 226.973 137.422 227.009 144.253C227.05 152.007 228.201 157.228 231.147 163.026 233.407 167.473 238.175 173.195 241.159 175.04 243.865 176.714 243.03 177.664 238.796 177.727 235.161 177.781 233.105 176.291 230.969 172.054 228.333 166.826 226.997 165.576 224.113 165.641 221.528 165.699 221.465 165.755 220.372 168.984 219.034 172.938 216.302 176.681 214.16 177.495 212.29 178.206 211.549 178.196 209.657 177.436ZM249.08 175.872C239.874 171.267 231.619 157.597 230.656 145.366 230.286 140.666 230.838 140.361 232.383 144.412 233.795 148.116 237.506 153.31 241.56 157.259 249.764 165.248 261.914 168.591 270.025 165.091 271.622 164.402 271.403 165.398 269.24 168.663 268.197 170.238 266.309 172.074 265.044 172.743 263.778 173.413 262.493 174.61 262.186 175.402 260.884 178.762 255.257 178.963 249.08 175.872ZM175.818 148.306C172.206 147.113 168.829 144.933 166.649 142.386 164.527 139.907 163.208 137.112 163.854 136.465 163.999 136.321 165.917 136.763 168.118 137.448 174.317 139.377 185.157 139.006 191.26 136.656 192.521 136.17 192.985 135.597 192.849 134.69 192.669 133.489 192.149 133.404 184.397 133.304 175.336 133.187 172.161 132.454 166.442 129.153 159.821 125.332 156.302 116.812 157.988 108.689 159.095 103.358 160.039 103.032 161.833 107.361 165.275 115.665 175.458 122.328 190.535 126.142 198.946 128.269 201.927 128.212 202.369 125.915 202.516 125.155 201.239 124.572 196.974 123.449 182.722 119.696 175.292 114.979 170.348 106.543 168.778 103.863 168.512 102.67 168.298 97.3278 168.073 91.7335 168.203 90.8521 169.769 87.3624 170.714 85.2568 172.319 82.7377 173.335 81.764L175.183 79.9937 175.183 84.5541C175.183 93.7853 177.719 97.421 197.857 117.055 205.404 124.412 211.308 130.432 210.978 130.432 210.648 130.432 207.678 132.887 204.378 135.888 197.262 142.358 193.115 145.269 188.537 147.009 184.77 148.44 178.242 149.106 175.818 148.306ZM266.689 148.221C262.111 147.414 256.787 145.151 253.295 142.527 250.681 140.564 239.364 129.986 239.364 129.507 239.364 129.438 246.642 122.112 255.538 113.226 274.223 94.5644 275.258 93.066 275.148 84.8387 275.114 82.3046 275.328 80.2315 275.623 80.2315 276.466 80.2315 279.982 85.6565 281.075 88.6444 281.659 90.2375 282.079 93.5033 282.098 96.578 282.127 101.202 281.897 102.277 280.11 105.91 276.464 113.314 269.792 118.064 256.916 122.423 250.506 124.593 249.214 125.244 249.214 126.302 249.214 128.809 253.828 128.271 266.112 124.331 276.853 120.887 284.565 114.868 288.081 107.185 288.965 105.257 290.014 103.787 290.415 103.921 291.467 104.271 292.637 108.628 292.692 112.408 292.894 125.826 280.753 134.483 263.456 133.257 258.163 132.882 257.298 132.961 256.955 133.851 255.487 137.68 273.767 140.224 282.677 137.43 284.892 136.736 286.777 136.164 286.863 136.16 286.952 136.155 287.022 136.652 287.019 137.264 287.017 137.875 285.936 139.8 284.618 141.542 280.614 146.828 273.606 149.439 266.689 148.221ZM223.226 130.401C220.748 129.669 217.942 126.878 217.091 124.299 216.022 121.061 217.34 115.802 220.026 112.588 221.948 110.287 222.702 108.827 221.968 108.827 221.838 108.827 220.515 109.256 219.029 109.78 212.595 112.05 206.894 109.858 203.856 103.944 202.825 101.937 202.937 101.832 205.004 102.863 208.523 104.618 213.567 105.329 216.427 104.472 220.693 103.194 219.805 102.312 213.566 101.632 207.986 101.024 202.561 95.4456 202.014 89.7519 201.847 88.0106 201.909 86.5862 202.151 86.5862 202.394 86.5862 203.646 87.5829 204.933 88.8015 209.842 93.4481 217.073 96.1179 224.748 96.1179 230.807 96.1179 234.353 97.1672 237.732 99.9592 239.404 101.341 241.197 102.472 241.718 102.472 244.677 102.472 248.481 108.22 247.396 111.051 247.033 111.993 246.822 111.965 245.316 110.781 243.284 109.183 239.907 109.069 237.456 110.517 234.508 112.259 233.011 115.67 233 120.669 232.988 125.713 232.175 127.71 229.513 129.219 226.818 130.747 225.336 131.026 223.226 130.401ZM231.9 108.668C233.679 107.309 233.933 104.667 232.429 103.163 230.642 101.376 228.923 101.494 227.336 103.511 225.662 105.639 225.682 106.006 227.579 107.903 229.325 109.649 230.373 109.835 231.9 108.668Z" fill="#D40000" fill-rule="nonzero" fill-opacity="1" transform="matrix(1 0 0 1.00453 -140.404 -70.8801)"/></g></g></g></g></svg>